<svg xmlns="http://www.w3.org/2000/svg" viewBox="0 0 400 120" width="400" height="120">
  <!-- Horizontal layout logo for headers -->
  <rect width="400" height="120" fill="#ffffff"/>
  
  <!-- Logo symbol (left side) -->
  <g transform="translate(20, 20)">
    <!-- Teal figure -->
    <ellipse cx="25" cy="15" rx="8" ry="10" fill="#4ECDC4"/>
    <path d="M15 25 Q20 30 25 32 Q30 34 35 38 Q40 42 42 48 Q44 54 42 60 Q40 66 35 68 Q30 70 25 68 Q20 66 18 60 Q16 54 18 48 Q20 42 22 36 Q24 30 26 25 Z" fill="#4ECDC4" opacity="0.8"/>
    
    <!-- Blue figure -->
    <ellipse cx="55" cy="15" rx="8" ry="10" fill="#2E86AB"/>
    <path d="M65 25 Q60 30 55 32 Q50 34 45 38 Q40 42 38 48 Q36 54 38 60 Q40 66 45 68 Q50 70 55 68 Q60 66 62 60 Q64 54 62 48 Q60 42 58 36 Q56 30 54 25 Z" fill="#2E86AB" opacity="0.8"/>
    
    <!-- Orange center -->
    <ellipse cx="40" cy="25" rx="6" ry="8" fill="#FF8C42"/>
    <path d="M32 35 Q36 38 40 40 Q44 42 46 46 Q48 50 46 54 Q44 58 40 60 Q36 62 32 60 Q28 58 26 54 Q24 50 26 46 Q28 42 30 38 Q32 35 34 32 Z" fill="#FF8C42" opacity="0.9"/>
    
    <!-- Red flowing element -->
    <path d="M28 50 Q32 52 36 54 Q40 56 44 60 Q48 64 50 68 Q52 72 50 76 Q48 80 44 82 Q40 84 36 82 Q32 80 30 76 Q28 72 30 68 Q32 64 34 60 Q36 56 38 52 Z" fill="#E74C3C" opacity="0.7"/>
  </g>
  
  <!-- Company name -->
  <text x="120" y="55" font-family="Arial, sans-serif" font-size="32" font-weight="bold" fill="#FF8C42">
    SELLORA
  </text>
  
  <!-- E-PORICHOY text -->
  <text x="120" y="40" font-family="Arial, sans-serif" font-size="8" font-weight="normal" fill="#4ECDC4" letter-spacing="1px">
    E - P O R I C H O Y
  </text>
  
  <!-- Tagline -->
  <text x="120" y="75" font-family="Arial, sans-serif" font-size="10" font-weight="normal" fill="#7F8C8D">
    POWERING TEAMS, DRIVING GROWTH.
  </text>
</svg>